<?xml version="1.0" encoding="utf-8"?>
<!-- Generator: Adobe Illustrator 25.3.0, SVG Export Plug-In . SVG Version: 6.00 Build 0)  -->
<svg version="1.1" id="Capa_1" xmlns="http://www.w3.org/2000/svg" xmlns:xlink="http://www.w3.org/1999/xlink" x="0px" y="0px"
	 viewBox="0 0 50 50" style="enable-background:new 0 0 50 50;" xml:space="preserve">
<style type="text/css">
	.st0{fill:#010202;}
	.st1{fill:#009FE3;}
	.st2{fill:#29235C;}
	.st3{fill:#312783;}
	.st4{fill:#36A9E1;}
</style>
<rect class="st0" width="50" height="50"/>
<g>
	<circle class="st1" cx="25" cy="25" r="13.1"/>
	<path class="st2" d="M47.8,32.3c-0.5,2-4.8,2.7-10.8,2.2c-3.9-0.3-8.6-1.1-13.6-2.4c-5-1.3-9.4-3-13-4.7c-5.5-2.6-8.8-5.4-8.3-7.3
		S7,17.4,13,17.9c-0.1,0.2-0.2,0.3-0.4,0.5c-2.4,0.3-4,1-4.3,2.2c-0.3,1.1,0.5,2.4,2.1,3.7c2.7,2.2,7.6,4.5,13.4,6
		c5.8,1.6,11.2,2,14.6,1.5c2.1-0.3,3.4-1.1,3.7-2.2c0.3-1.2-0.7-2.6-2.6-4.1c0-0.2,0-0.4-0.1-0.6C45.1,27.6,48.4,30.3,47.8,32.3z"/>
	<path class="st3" d="M45.4,30.5c-0.5,1.8-4.3,2.5-9.7,2c-3.5-0.3-7.7-1-12.1-2.2c-4.4-1.2-8.4-2.7-11.6-4.2
		c-4.9-2.3-7.9-4.8-7.4-6.6s4.3-2.4,9.7-2c-0.1,0.1-0.2,0.3-0.3,0.5c-2.1,0.3-3.5,0.9-3.8,2c-0.3,1,0.5,2.1,1.9,3.3
		c2.4,2,6.7,4,12,5.4c5.2,1.4,10,1.8,13.1,1.3c1.9-0.3,3.1-1,3.3-1.9c0.3-1.1-0.6-2.3-2.3-3.7c0-0.2,0-0.4-0.1-0.6
		C42.9,26.2,45.9,28.7,45.4,30.5z"/>
</g>
<circle class="st4" cx="19.8" cy="18.5" r="2.3"/>
<circle class="st4" cx="30" cy="25.5" r="1.5"/>
<circle class="st4" cx="22.7" cy="34.6" r="1.2"/>
</svg>
